<svg width="50" height="51" viewBox="0 0 50 51" fill="none" xmlns="http://www.w3.org/2000/svg">
<path d="M39.018 35.6065C41.0802 32.6937 42.2618 30.4702 44.0233 26.9472C47.1757 20.6425 46.8009 14.2705 44.0284 8.56306C43.3322 7.12995 42.2566 5.97267 41.118 5.05957C45.5352 7.01898 48.6288 11.4876 48.6289 16.6992L39.018 35.6065ZM39.018 35.6065C44.1932 30.3851 48.6276 23.8165 48.6289 16.6994L39.018 35.6065Z" fill="#7E7E7E" stroke="#7E7E7E" stroke-width="2"/>
<path d="M34.8466 3.0313C40.8689 3.5087 45.6289 9.44576 45.6289 16.6976C45.626 33.7135 25.6172 47.642 25.1081 47.9941C25.1012 47.998 25.0983 48 25.0983 48C25.0983 48 0.628906 33.9326 0.628906 16.6957C0.628906 9.13174 6.8009 3 14.4145 3C18.7234 3 22.5706 4.96435 25.0983 8.04098C27.4418 5.18837 30.9187 3.2925 34.8466 3.0313Z" fill="white"/>
</svg>
