<svg width="50" height="51" viewBox="0 0 50 51" fill="none" xmlns="http://www.w3.org/2000/svg">
<g clip-path="url(#clip0_228_2080)">
<path d="M30 12.2751L29.9629 23.7537C29.9615 24.2316 29.8317 24.7007 29.5865 25.1145C29.3413 25.5283 28.9892 25.8724 28.5653 26.1124L17.9292 32.1302C17.502 32.3718 17.0171 32.4994 16.5232 32.5C16.0294 32.5006 15.5441 32.3743 15.1163 32.1339L4.40504 26.116C3.97695 25.8753 3.62162 25.5289 3.37492 25.1115C3.12822 24.6942 2.99889 24.2209 3.00001 23.7392L3.02414 12.2615C3.0252 11.7834 3.15479 11.3139 3.4 10.8997C3.64521 10.4856 3.99749 10.1412 4.42174 9.90107L15.0708 3.87055C15.4983 3.62846 15.9838 3.50064 16.4782 3.5C16.9726 3.49937 17.4584 3.62594 17.8865 3.86694L28.5959 9.89655C29.0241 10.1375 29.3794 10.4843 29.6259 10.9019C29.8725 11.3196 30.0015 11.7933 30 12.2751Z" fill="#BCBCBC"/>
<path d="M29 12.5669L28.9687 23.8231C28.9671 24.353 28.8303 24.8732 28.5717 25.3322C28.3131 25.7911 27.9418 26.1726 27.4947 26.4389L17.5582 32.3561C17.4003 32.4501 17.221 32.4997 17.0385 32.5C16.8559 32.5003 16.6764 32.4511 16.5183 32.3576C16.3602 32.264 16.229 32.1293 16.138 31.9671C16.047 31.8049 15.9994 31.621 16 31.4339L16.0313 20.1787C16.0327 19.6486 16.1695 19.1282 16.4281 18.6691C16.6867 18.21 17.0581 17.8283 17.5053 17.5619L27.4418 11.6457C28.134 11.2328 29.0027 11.7457 29 12.5669Z" fill="#D4D6D6"/>
<path d="M16 20.1966L15.9689 31.4412C15.9684 31.6273 15.9205 31.81 15.8299 31.971C15.7393 32.132 15.6092 32.2656 15.4527 32.3585C15.2961 32.4513 15.1187 32.5001 14.938 32.5C14.7574 32.4999 14.58 32.4508 14.4236 32.3578L4.47233 26.4376C4.02365 26.1708 3.65125 25.7868 3.39273 25.3243C3.13422 24.8617 2.99875 24.3371 3.00001 23.8034L3.03115 12.5588C3.03159 12.3727 3.07952 12.19 3.17011 12.029C3.26071 11.868 3.3908 11.7344 3.54733 11.6415C3.70386 11.5487 3.88134 11.4999 4.06196 11.5C4.24258 11.5001 4.41999 11.5492 4.57641 11.6422L14.5277 17.5624C14.9765 17.8292 15.349 18.2134 15.6075 18.6761C15.866 19.1388 16.0014 19.6627 16 20.1966Z" fill="#E0E2E2"/>
<path d="M28.4614 11.9536L18.0925 18.0747C17.622 18.3524 17.0877 18.4992 16.5434 18.5C15.9992 18.5008 15.4645 18.3557 14.9931 18.0794L4.54103 11.948C4.37678 11.8516 4.24033 11.7131 4.14537 11.5464C4.05042 11.3796 4.00029 11.1904 4 10.9977C3.99972 10.8051 4.04929 10.6157 4.14376 10.4487C4.23822 10.2816 4.37426 10.1427 4.53823 10.0459L14.9072 3.92487C15.3778 3.64723 15.9121 3.50067 16.4563 3.5C17.0006 3.49934 17.5353 3.64458 18.0065 3.92107L28.4586 10.0506C29.1791 10.473 29.1809 11.5294 28.4614 11.9536Z" fill="#ECF0F1"/>
<path d="M18.0127 4.85004C18.8512 5.31857 18.8559 6.08016 18.0323 6.54326C17.1994 7.0127 15.8529 7.00637 15.0144 6.53784C14.1759 6.06931 14.1713 5.31857 15.0051 4.85004C15.8268 4.38604 17.1742 4.38061 18.0127 4.85004ZM26.3669 9.52178C27.2054 9.99121 27.2101 10.7519 26.3865 11.2159C25.5536 11.6844 24.2071 11.679 23.3686 11.2105C22.5301 10.741 22.5255 9.99121 23.3593 9.52178C24.1819 9.05868 25.5293 9.05325 26.3669 9.52178ZM9.55578 9.61042C10.3943 10.0799 10.3989 10.8405 9.57539 11.3036C8.74249 11.7731 7.38576 11.7731 6.54726 11.3036C5.70876 10.8351 5.71436 10.0799 6.54726 9.61042C7.37082 9.14732 8.71728 9.14189 9.55578 9.61042ZM17.91 14.2831C18.7485 14.7516 18.7531 15.5132 17.9296 15.9763C17.0967 16.4457 15.74 16.4457 14.9024 15.9763C14.0639 15.5077 14.0686 14.7516 14.9024 14.2831C15.725 13.82 17.0724 13.8136 17.91 14.2831ZM17.9613 9.57152C18.7905 10.0355 18.8045 10.7908 17.9809 11.2539C17.148 11.7233 15.7913 11.7233 14.9631 11.2602C14.1246 10.7908 14.1302 10.0355 14.9631 9.5661C15.7857 9.103 17.1228 9.10299 17.9613 9.57152ZM5.51454 12.7807C6.35211 13.2492 7.03094 14.388 7.02814 15.3097C7.02534 16.2431 6.34277 16.6085 5.50427 16.14C4.66577 15.6715 3.99721 14.5499 4.00001 13.6164C4.00281 12.6939 4.67604 12.3113 5.51454 12.7807ZM13.8407 26.9279C14.6792 27.3965 15.3571 28.5352 15.3553 29.4569C15.3525 30.3904 14.669 30.7675 13.8305 30.2981C12.992 29.8287 12.3243 28.6971 12.3271 27.7637C12.329 26.8411 13.0022 26.4585 13.8407 26.9279ZM9.68277 19.862C10.511 20.326 11.1889 21.453 11.1861 22.3756C11.1842 23.3081 10.5007 23.6853 9.6725 23.2222C8.834 22.7528 8.16544 21.6213 8.16917 20.6869C8.17104 19.7643 8.84427 19.3935 9.68183 19.862H9.68277Z" fill="black"/>
<path d="M22.9942 19.8241C21.8959 20.5631 20.9967 22.3614 21 23.8335C21.0042 25.3221 21.9092 25.9231 23.0067 25.1842C24.1182 24.4365 25.0041 22.6294 25 21.1399C24.9967 19.6688 24.1049 19.0755 22.9933 19.8241H22.9942Z" fill="#880000"/>
<path d="M47.6178 34.924L41.6668 44.7394C41.4191 45.1481 41.0658 45.4832 40.642 45.7114C40.2183 45.9396 39.7389 46.0528 39.2516 46.0399L27.0318 45.7181C26.5409 45.7052 26.0593 45.5647 25.6355 45.3108C25.2117 45.0569 24.8608 44.6985 24.6181 44.272L18.5412 33.6C18.2982 33.1734 18.1721 32.6935 18.1757 32.2088C18.1793 31.7241 18.3125 31.2518 18.5618 30.8397L24.502 21.0188C24.7495 20.6097 25.1028 20.2741 25.5265 20.0456C25.9503 19.8171 26.4299 19.7035 26.9174 19.7163L39.1556 20.0344C39.6469 20.0472 40.1289 20.1877 40.553 20.4418C40.9771 20.6959 41.3283 21.0545 41.5709 21.4815L47.641 32.163C47.8838 32.5899 48.0095 33.0701 48.0054 33.5549C48.0014 34.0397 47.8677 34.512 47.6178 34.924Z" fill="#BCBCBC"/>
<path d="M46.5917 35.1099L40.7607 44.7371C40.486 45.1903 40.1002 45.5655 39.6418 45.8254C39.1833 46.0853 38.6681 46.2209 38.1474 46.2186L26.5792 46.1708C26.3954 46.17 26.2161 46.1203 26.0595 46.0264C25.9029 45.9326 25.7744 45.7981 25.6871 45.6365C25.5999 45.4749 25.5569 45.292 25.5625 45.1061C25.5681 44.9203 25.6222 44.7382 25.7192 44.5783L31.5509 34.9515C31.8254 34.4981 32.2111 34.1227 32.6695 33.8626C33.128 33.6024 33.6432 33.4667 34.1639 33.4688L45.7324 33.5178C46.5395 33.5211 47.0183 34.4082 46.5924 35.1103L46.5917 35.1099Z" fill="#D4D6D6"/>
<path d="M31.6577 34.6467L25.8319 44.264C25.7355 44.4232 25.6002 44.555 25.4395 44.6463C25.2789 44.7375 25.0984 44.785 24.9164 44.7839C24.7343 44.7829 24.557 44.7333 24.4023 44.6401C24.2475 44.547 24.1207 44.4136 24.0346 44.2534L18.5579 34.0562C18.3108 33.5965 18.1897 33.0755 18.2067 32.5459C18.2237 32.0164 18.3783 31.497 18.6549 31.0404L24.4807 21.4231C24.577 21.2639 24.7123 21.1321 24.873 21.0408C25.0337 20.9496 25.2141 20.9021 25.3962 20.9032C25.5782 20.9042 25.7555 20.9538 25.9103 21.0469C26.065 21.1401 26.1918 21.2735 26.2779 21.4337L31.7546 31.6309C32.0017 32.0906 32.1229 32.6116 32.1058 33.1412C32.0888 33.6707 31.9342 34.1901 31.6577 34.6467Z" fill="#E0E2E2"/>
<path d="M46.6077 34.3408L34.5637 34.2451C34.017 34.2409 33.4831 34.0914 33.016 33.8117C32.549 33.532 32.1653 33.1321 31.9038 32.6524L26.1065 22.0169C26.0154 21.8498 25.9698 21.6608 25.9744 21.469C25.9791 21.2772 26.0337 21.0893 26.1328 20.9241C26.2319 20.7589 26.3721 20.6222 26.5392 20.5277C26.7063 20.4333 26.8946 20.3843 27.0851 20.3858L39.1298 20.482C39.6764 20.4863 40.2101 20.6358 40.677 20.9154C41.1439 21.195 41.5275 21.5947 41.789 22.0742L47.5871 32.7102C47.986 33.4427 47.4432 34.3479 46.6077 34.3408Z" fill="#ECF0F1"/>
<path d="M40.6531 22.9102C41.1196 23.7372 40.7307 24.392 39.7972 24.3713C38.8521 24.3501 37.717 23.6617 37.2504 22.8348C36.7839 22.0079 37.168 21.3628 38.113 21.384C39.0471 21.4039 40.1878 22.083 40.6531 22.9102ZM45.3 31.1526C45.766 31.9803 45.3768 32.6339 44.442 32.6135C43.4977 32.5927 42.3626 31.9043 41.8961 31.0774C41.43 30.2497 41.8136 29.6054 42.7591 29.6259C43.6927 29.6466 44.8335 30.3257 45.3 31.1526ZM31.0557 22.6972C31.5222 23.5241 31.1333 24.1789 30.1998 24.1582C29.2534 24.1373 28.1076 23.4488 27.6424 22.6216C27.1758 21.7947 27.5698 21.1492 28.5156 21.1709C29.4492 21.1916 30.5899 21.8707 31.0557 22.6972ZM35.7021 30.9403C36.1686 31.7672 35.779 32.4216 34.8446 32.4004C33.9003 32.3796 32.7545 31.6911 32.288 30.8642C31.8215 30.0373 32.2162 29.3923 33.1613 29.4136C34.0953 29.4335 35.236 30.1126 35.7021 30.9403ZM42.9992 27.0973C43.4649 27.9237 43.076 28.5785 42.1417 28.5574C41.1974 28.5366 40.0623 27.8482 39.5957 27.0213C39.1297 26.1936 39.5133 25.5493 40.4588 25.5698C41.3924 25.5905 42.5327 26.2703 42.9992 27.0973ZM33.4018 26.8842C33.8675 27.7106 33.4786 28.3655 32.5443 28.3443C31.6 28.3235 30.4542 27.635 29.9877 26.8081C29.5211 25.9812 29.9159 25.3362 30.8609 25.3575C31.795 25.3774 32.9357 26.0565 33.4018 26.8842ZM26.0076 23.3625C26.4741 24.1894 26.4598 25.5083 25.9816 26.2973C25.4978 27.0956 24.7329 27.0623 24.2664 26.2354C23.7999 25.4084 23.8142 24.1075 24.2983 23.3105C24.7757 22.521 25.5416 22.5348 26.0068 23.362L26.0076 23.3625ZM25.7431 39.7082C26.2096 40.5351 26.1961 41.8545 25.7179 42.6435C25.2341 43.4418 24.4631 43.4185 23.9971 42.5909C23.531 41.7632 23.55 40.4545 24.0338 39.6562C24.5119 38.8672 25.2771 38.8806 25.7431 39.7082ZM25.8757 31.5446C26.3359 32.3624 26.328 33.6724 25.8494 34.4602C25.3665 35.2589 24.5955 35.2357 24.1348 34.4187C23.668 33.5905 23.6874 32.281 24.1712 31.4827C24.6494 30.6937 25.4092 30.7177 25.8757 31.5446ZM44.4985 34.4729C43.5487 34.4489 42.3885 35.0792 41.9151 35.8711C41.436 36.6722 41.824 37.3317 42.7738 37.3557C43.7236 37.3798 44.8672 36.7574 45.3457 35.9571C45.8192 35.1652 45.448 34.4958 44.4985 34.4729ZM30.1695 42.3679C29.2197 42.3438 28.0603 42.9746 27.5869 43.7665C27.107 44.5671 27.4902 45.2363 28.44 45.2604C29.389 45.2841 30.5377 44.6531 31.0167 43.852C31.491 43.0606 31.1197 42.3912 30.1695 42.3679ZM34.8969 34.5148C33.9471 34.4907 32.7872 35.1223 32.3143 35.9134C31.8344 36.7141 32.2227 37.3748 33.173 37.3981C34.122 37.4217 35.2651 36.8001 35.7441 35.9989C36.2184 35.2075 35.8471 34.5381 34.8969 34.5148ZM40.2616 42.3728C39.3126 42.3491 38.1528 42.9808 37.6798 43.7718C37.1999 44.5725 37.5827 45.2425 38.5321 45.2653C39.4816 45.2882 40.6306 44.6585 41.1096 43.8573C41.5839 43.066 41.2119 42.3961 40.2616 42.3728Z" fill="black"/>
</g>
<defs>
<clipPath id="clip0_228_2080">
<rect width="50" height="50" fill="white" transform="translate(0 0.5)"/>
</clipPath>
</defs>
</svg>
